<svg width="24" height="24" viewBox="0 0 24 24" fill="none" xmlns="http://www.w3.org/2000/svg">
<path d="M15.5 23.0312L7.90625 20.3437L2.3125 22.5625C1.95833 22.75 1.60937 22.7396 1.26562 22.5312C0.921875 22.3229 0.75 22.0104 0.75 21.5937V4.15625C0.75 3.88542 0.828125 3.64583 0.984375 3.4375C1.14062 3.22917 1.34375 3.07292 1.59375 2.96875L7.28125 0.96875C7.48958 0.90625 7.69792 0.875 7.90625 0.875C8.11458 0.875 8.32292 0.90625 8.53125 0.96875L16.125 3.625L21.6875 1.40625C22.0417 1.23958 22.3906 1.25521 22.7344 1.45313C23.0781 1.65104 23.25 1.95833 23.25 2.375V20.0312C23.25 20.2604 23.1719 20.4583 23.0156 20.625C22.8594 20.7917 22.6667 20.9167 22.4375 21L16.75 23.0312C16.5417 23.0938 16.3333 23.125 16.125 23.125C15.9167 23.125 15.7083 23.0938 15.5 23.0312ZM15.0625 20.9062V5.125L8.9375 3.0625V18.8438L15.0625 20.9062ZM16.9375 20.9062L21.375 19.4375V3.4375L16.9375 5.125V20.9062ZM2.625 20.5312L7.0625 18.8438V3.0625L2.625 4.53125V20.5312ZM16.9375 5.125V20.9062V5.125ZM7.0625 3.0625V18.8438V3.0625Z" fill="white"/>
</svg>
