<svg width="23" height="23" viewBox="0 0 23 23" fill="none" xmlns="http://www.w3.org/2000/svg">
<path d="M16.4062 16.0312C16.2188 15.8438 16.125 15.6146 16.125 15.3438C16.125 15.0729 16.2188 14.8542 16.4062 14.6875L18.9062 12.1875H8.90625C8.63542 12.1875 8.41146 12.099 8.23438 11.9219C8.05729 11.7448 7.96875 11.5208 7.96875 11.25C7.96875 10.9792 8.05729 10.7552 8.23438 10.5781C8.41146 10.401 8.63542 10.3125 8.90625 10.3125H18.8438L16.3125 7.78125C16.1458 7.61458 16.0625 7.40104 16.0625 7.14062C16.0625 6.88021 16.1562 6.65625 16.3438 6.46875C16.5313 6.28125 16.7552 6.1875 17.0156 6.1875C17.276 6.1875 17.5 6.28125 17.6875 6.46875L21.8438 10.625C21.9479 10.7292 22.0208 10.8333 22.0625 10.9375C22.1042 11.0417 22.125 11.1562 22.125 11.2812C22.125 11.4062 22.1042 11.5208 22.0625 11.625C22.0208 11.7292 21.9479 11.8333 21.8438 11.9375L17.7188 16.0625C17.5521 16.2292 17.3385 16.3125 17.0781 16.3125C16.8177 16.3125 16.5938 16.2188 16.4062 16.0312ZM1.875 22.5C1.375 22.5 0.9375 22.3125 0.5625 21.9375C0.1875 21.5625 0 21.125 0 20.625V1.875C0 1.375 0.1875 0.9375 0.5625 0.5625C0.9375 0.1875 1.375 0 1.875 0H10.0312C10.3021 0 10.526 0.0885418 10.7031 0.265625C10.8802 0.442708 10.9688 0.666667 10.9688 0.9375C10.9688 1.20833 10.8802 1.43229 10.7031 1.60937C10.526 1.78646 10.3021 1.875 10.0312 1.875H1.875V20.625H10.0312C10.3021 20.625 10.526 20.7135 10.7031 20.8906C10.8802 21.0677 10.9688 21.2917 10.9688 21.5625C10.9688 21.8333 10.8802 22.0573 10.7031 22.2344C10.526 22.4115 10.3021 22.5 10.0312 22.5H1.875Z" fill="#B5B5B5"/>
</svg>
