<svg width="26" height="26" viewBox="0 0 26 26" fill="none" xmlns="http://www.w3.org/2000/svg">
<path d="M2.375 25.5C1.875 25.5 1.4375 25.3125 1.0625 24.9375C0.6875 24.5625 0.5 24.125 0.5 23.625V8.625C0.5 8.125 0.6875 7.6875 1.0625 7.3125C1.4375 6.9375 1.875 6.75 2.375 6.75H9.78125V2.375C9.78125 1.875 9.96875 1.4375 10.3438 1.0625C10.7188 0.6875 11.1562 0.5 11.6562 0.5H14.375C14.875 0.5 15.3125 0.6875 15.6875 1.0625C16.0625 1.4375 16.25 1.875 16.25 2.375V6.75H23.625C24.125 6.75 24.5625 6.9375 24.9375 7.3125C25.3125 7.6875 25.5 8.125 25.5 8.625V23.625C25.5 24.125 25.3125 24.5625 24.9375 24.9375C24.5625 25.3125 24.125 25.5 23.625 25.5H2.375ZM2.375 23.625H23.625V8.625H16.25C16.25 9.20833 16.0573 9.66667 15.6719 10C15.2865 10.3333 14.8021 10.5 14.2188 10.5H11.7812C11.2188 10.5 10.7448 10.3333 10.3594 10C9.97396 9.66667 9.78125 9.20833 9.78125 8.625H2.375V23.625ZM5.25 20.2812H12.7188V19.8438C12.7188 19.4688 12.625 19.1354 12.4375 18.8438C12.25 18.5521 12.0104 18.3542 11.7188 18.25C11.0521 18.0208 10.5313 17.8698 10.1562 17.7969C9.78125 17.724 9.41667 17.6875 9.0625 17.6875C8.66667 17.6875 8.24479 17.7344 7.79688 17.8281C7.34896 17.9219 6.84375 18.0625 6.28125 18.25C5.96875 18.3542 5.71875 18.5521 5.53125 18.8438C5.34375 19.1354 5.25 19.4688 5.25 19.8438V20.2812ZM15.75 18.1875H21.0625V16.625H15.75V18.1875ZM9.0625 16.625C9.54167 16.625 9.94271 16.4583 10.2656 16.125C10.5885 15.7917 10.75 15.3958 10.75 14.9375C10.75 14.4583 10.5885 14.0573 10.2656 13.7344C9.94271 13.4115 9.54167 13.25 9.0625 13.25C8.60417 13.25 8.20833 13.4115 7.875 13.7344C7.54167 14.0573 7.375 14.4583 7.375 14.9375C7.375 15.3958 7.54167 15.7917 7.875 16.125C8.20833 16.4583 8.60417 16.625 9.0625 16.625ZM15.75 14.6562H21.0625V13.0938H15.75V14.6562ZM11.6562 8.625H14.375V2.375H11.6562V8.625Z" fill="#D7D7D7"/>
</svg>
