<svg width="262" height="318" viewBox="0 0 262 318" fill="none" xmlns="http://www.w3.org/2000/svg">
<path d="M200.038 88.1511H145.816V92.0315H200.038V88.1511Z" fill="#02284C"/>
<path d="M201.393 62.343L160.394 56.3037V88.1511H201.393V62.343Z" fill="#02284C"/>
<path d="M153.025 53.7995L152.614 56.5916L208.772 64.8527L209.182 62.0607L153.025 53.7995Z" fill="#02284C"/>
<path d="M154.227 90.0842H151.404V119.194H154.227V90.0842Z" fill="#02284C"/>
<path d="M164.946 89.2638L151.658 108.366L153.975 109.977L167.264 90.8752L164.946 89.2638Z" fill="#02284C"/>
<path d="M-30.3007 212.323L-28.2825 211.787V208.697L-27.1253 205.875L-26.0527 209.092V211.688L-25.0648 214.158L-23.7664 212.577L-22.7079 208.471L-21.9599 211.815L-21.593 215.71H-19.095L-18.2341 214.045V213.283L-17.4296 210.56L-17.0627 213.777L-17.6131 214.525L-17.0627 215.696L-16.0042 214.948V213.833L-15.5667 211.971L-15.0728 214.257V215.188L-14.3248 216.359L-13.5203 217.601V218.744L-12.7441 218.461V217.29L-12.1231 216.74L-12.3489 215.865L-11.8973 214.694L-11.3046 216.105L-11.6433 216.514L-11.3751 217.685V218.264L-10.9659 219.096L-10.6413 218.433L-10.7118 217.968L-10.3449 217.135L-10.1755 218.207L-10.3449 218.603L-10.0909 219.491L-9.63924 219.012L-9.35699 217.756L-9.21585 218.984L-8.77835 219.943L-8.59488 220.606L-8.22794 219.844L-7.77633 218.8L-7.59286 220.606V221.439L-7.35294 221.89L-6.53438 223.033L-6.37914 223.654L-5.85696 223.315L-5.70172 222.116L-5.20776 221.185L-5.05252 222.695V223.809C-5.05252 223.809 -4.61501 224.557 -4.58679 224.642C-4.55856 224.726 -4.488 225.63 -4.488 225.63L-3.96581 224.924V224.303L-3.81057 223.315L-3.59888 224.303L-3.34484 224.98L-3.50008 225.996L-2.82266 227.323L-2.51218 226.547L-2.66742 225.615L-2.3287 223.908L-1.8912 225.615V226.236L-1.60894 227.506L-1.42547 228.706C-1.19882 228.345 -0.991539 227.973 -0.804501 227.591C-0.804501 227.492 -0.959743 226.787 -0.959743 226.787L-0.40934 225.587L-0.197639 227.633V228.565C-0.197639 228.565 0.0846176 229.524 0.112843 229.707C0.141068 229.891 1.19955 229.707 1.19955 229.707V228.381L1.56649 227.393L1.77818 228.804V229.849L2.21568 231.09L2.76609 230.441V228.931L3.20359 231.09V232.233L3.51408 233.193L4.00803 232.078L4.44554 230.596V231.923L4.8407 232.882V233.503L5.77216 233.193V232.05L6.0262 230.723L6.49192 232.134V233.277L6.98588 235.253L7.57862 234.66L7.7621 234.18L7.45161 233.503L8.11492 232.163L8.48186 233.771C8.48186 233.771 8.25605 234.364 8.25605 234.406C8.25605 234.449 8.55243 235.309 8.55243 235.309L9.04638 236.354L8.91936 236.65L9.22985 236.198V235.549L9.3992 235.027L9.6109 235.634V236.156L9.82259 236.918H10.8246L11.3468 236.184L11.9254 234.646L12.4476 236.495L12.0524 237.553L12.6593 239.43L13.2803 238.795C13.3938 238.333 13.4507 237.859 13.4496 237.384L14.3246 234.336V239.19L14.6775 240.431L15.4113 239.641L15.7077 238.583L16.1452 236.41L16.5545 238.766L16.2299 240.177L16.5545 242.054H17.9658V241.024L18.1069 239.147C18.2682 238.667 18.4567 238.196 18.6715 237.736V243.211C18.6715 243.211 19.5182 244.298 19.5182 244.185C19.5182 244.072 20.0828 242.774 20.0828 242.774L20.6049 240.982L20.9578 243.395V245.102L21.3811 246.245C21.3811 246.245 22.1291 245.074 22.1574 244.989C22.1856 244.904 21.861 243.959 21.9457 243.818C22.0303 243.677 22.7078 241.56 22.7078 241.56L23.3005 244.171L22.7078 245.314L23.2299 246.993L24.0767 248.192C24.5221 247.791 24.9461 247.368 25.3469 246.922C25.2262 246.462 25.1692 245.987 25.1775 245.511C25.2622 245.187 25.6433 243.31 25.6433 243.31L26.0243 246.428C25.8834 246.669 25.8012 246.94 25.7844 247.219C25.7844 247.543 26.0243 249.603 26.0243 249.603C26.0243 249.603 27.0264 249.039 27.0264 248.87C27.0264 248.7 27.111 247.077 27.111 246.965C27.111 246.852 27.4921 245.554 27.4921 245.554L27.8731 247.261V248.404L28.2824 249.815V251.226L29.0445 252.933L30.0748 251.522V249.109L31.4861 245.554C31.5707 245.342 31.8107 248.7 31.8389 248.785C31.8671 248.87 31.3167 250.464 31.3167 250.549C31.3167 250.633 31.8107 252.609 31.8107 252.609L31.726 253.752L32.7845 254.754L34.1958 253.343L33.8853 251.099L34.5486 247.346L35.2542 251.804L34.9014 253.879C35.0986 254.838 35.2306 255.809 35.2966 256.785C35.2276 257.873 35.2702 258.966 35.4236 260.045L36.5667 262.867L37.1877 261.188L36.9619 259.466L37.8369 256.419V254.485L38.5002 257.223V258.86L38.8954 261.908V262.881L39.9115 262.218L39.9962 259.932L40.97 257.463V256.179L41.6757 260.765C41.6313 261.394 41.6313 262.026 41.6757 262.655C41.7603 262.924 42.0708 264.377 42.0708 264.377L42.6495 263.502L43.1716 260.906L43.9196 259.325V261.357L43.6515 263.7L43.9196 265.336L45.0628 265.957L45.9378 264.673L45.712 262.782L46.5023 260.892L47.0809 264.857L47.7866 267.199L50.1717 268.384C50.1717 268.384 51.3148 265.562 51.3148 265.393C51.3148 265.224 51.5265 262.049 51.5265 262.049L52.4721 260.906V264.081L51.9499 265.492L52.4721 267.566L52.0346 268.709L52.9661 271.136L52.1757 271.841L53.2765 274.043L54.5608 271.7L54.2927 270.374C54.2927 270.374 55.3088 268.878 55.1677 268.652C55.0203 268.253 54.907 267.843 54.829 267.425C54.829 267.425 55.8169 262.43 55.8733 262.655L56.8048 267.072C56.7559 267.301 56.6801 267.524 56.579 267.735C56.4237 268.046 57.454 269.894 57.454 269.894L57.0165 270.825L57.454 272.589C57.454 272.589 58.7383 270.035 58.6818 269.894C58.4664 269.214 58.292 268.521 58.1596 267.82L58.9923 265.082L59.7826 268.088L60.3048 269.358V271.432L61.7161 272.533L63.4379 269.189V266.366L63.7907 264.828C63.7907 264.828 64.3129 266.423 64.3694 266.635C64.3396 266.982 64.2636 267.323 64.1436 267.651L65.202 272.279L66.2605 270.388C66.1682 269.923 66.1116 269.451 66.0912 268.977C66.0912 268.709 66.8391 266.028 66.8391 266.028L67.7706 269.245L67.3331 270.078L68.2081 272.9L71.0307 273.986L72.315 271.079V269.979L72.7525 268.342L73.6275 270.811C73.6275 270.811 73.2323 271.206 73.2747 271.347C73.317 271.489 73.938 274 73.938 274L75.5186 273.478V271.319C75.5186 271.319 76.0973 269.739 76.182 269.993L77.4662 274V274.932L79.3574 275.242C79.5986 274.355 79.7917 273.455 79.936 272.547C79.936 272.279 80.6417 271.221 80.6417 271.136C80.6417 271.051 80.063 269.203 80.063 269.203L80.6417 265.717L81.432 269.16V274.988C81.432 274.988 82.8433 272.871 82.8433 272.744C82.8433 272.617 83.1114 270.459 83.1114 270.459L83.8594 273.549L85.0449 276.286L85.6659 274.254L85.3554 273.281C85.4919 272.641 85.6662 272.009 85.8776 271.39L86.9361 274.438L87.557 276.907H89.1941L89.4905 275.891L89.2365 273.563L90.0692 271.489L90.6901 273.521V274.536L91.0006 275.51V277.274L92.5813 278.685C92.4258 278.291 92.3215 277.878 92.2708 277.457C92.2708 277.189 92.8494 275.609 92.8494 275.468C92.8494 275.327 93.1599 273.013 93.1599 273.013L93.7809 275.722V277.443L94.4865 278.981L94.924 277.881V275.99L96.1519 273.013L96.547 276.47L96.42 277.401L97.2103 279.348L98.6216 281.07L99.7648 280.054L99.3696 279.433C99.3696 279.433 100.654 275.073 100.781 275.2C100.908 275.327 101.487 278.248 101.529 278.558C101.47 279.255 101.367 279.948 101.218 280.632L101.797 281.817L104.62 283.313V281.197L105.593 276.879L107.005 279.602L106.299 282.509C106.299 282.509 108.063 287.01 108.063 286.742C108.063 286.474 109.743 280.392 109.743 280.392V277.048L110.801 273.958L111.944 278.629L111.069 279.87L111.958 283.581V285.613L113.285 288.52L112.664 290.016L114.16 294.517L115.303 291.483C115.303 291.483 114.781 289.578 114.781 289.31C114.781 289.042 116.108 286.841 115.84 286.573C115.571 286.305 115.049 285.698 115.317 285.345C115.585 284.992 117.265 278.205 117.265 278.205L118.592 283.68L117.759 285.091L118.592 287.913L119.594 289.762L120.694 286.262L121.245 283.44L122.219 286.347V288.901H123.715L124.858 286.827L124.547 285.5C124.547 285.331 125.126 283.468 125.211 284.089C125.295 284.71 125.832 287.137 125.832 287.137L125.563 287.927L125.832 290.002L127.243 292.386C127.431 291.872 127.578 291.344 127.68 290.806C127.68 290.637 127.243 289.79 127.243 289.79C127.243 289.79 127.864 285.867 127.906 286.135L128.442 289.352L128.273 290.368C128.273 290.368 128.894 291.779 128.936 291.963C129.441 292.257 129.97 292.507 130.517 292.711L131.138 290.241L131.448 287.998L131.844 289.282V290.82L132.324 292.81L132.944 294.348L133.255 293.769L133.029 292.626L134.13 289.282L136.162 294.926L135.541 295.406L136.162 296.732L137.136 295.589C137.076 295.114 136.987 294.643 136.868 294.178C136.797 294.178 137.136 290.806 137.136 290.806L137.926 294.376L137.658 295.702L138.195 297.339L139.436 297.692L139.338 296.591L139.818 294.037L140.368 296.111V298.228L142.287 299.822L142.061 298.637L141.709 297.494L142.287 292.781L143.529 299.216V300.542L144.63 298.03L144.983 295.603L145.957 300.542L146.789 298.962L147.227 296.267L147.495 299.089L148.384 302.489L150.106 301.262C150.142 300.095 150.245 298.931 150.416 297.776C150.543 297.776 151.249 301.614 151.249 301.614L152.477 316.981H-37.1878L-30.3007 212.323Z" fill="#0E4764"/>
<path d="M291.532 217.883L288.54 217.304V214.003L286.819 210.955L285.238 214.398V217.22L283.827 219.872L281.907 218.179L280.341 213.791L279.24 217.361L278.689 221.594H274.978L273.693 219.802V218.927L272.494 216.02L271.943 219.463L272.776 220.253L271.943 221.509L270.377 220.719V219.534L269.728 217.544L268.994 219.985V220.973L267.893 222.229L266.693 223.555V224.783L265.55 224.487V223.231L264.633 222.638L264.972 221.693L264.308 220.451L263.433 221.975L263.941 222.412L263.546 223.654L263.645 224.275L263.052 225.178L262.572 224.458L262.685 223.965L262.135 223.061L261.881 224.204L262.135 224.614L261.768 225.559L261.105 225.051L260.695 223.64L260.484 224.952L259.834 225.982L259.552 226.702L259.002 225.884L258.338 224.769L258.056 226.688V227.591L257.717 228.071L256.49 229.284L256.264 229.947L255.488 229.58L255.262 228.296L254.528 227.309L254.302 228.931V230.215C254.302 230.215 253.653 231.006 253.611 231.104C253.568 231.203 253.469 232.163 253.469 232.163L252.693 231.401V230.738L252.467 229.679L252.143 230.738L251.776 231.471L252.002 232.558L250.986 233.969L250.52 233.136L250.746 232.149L250.238 230.328L249.588 232.149V232.812L249.179 234.223L248.897 235.507C248.568 235.131 248.261 234.735 247.98 234.322C247.98 234.223 248.205 233.461 248.205 233.461L247.373 232.177L247.048 234.364V235.352C247.048 235.352 246.639 236.382 246.582 236.579C246.526 236.777 244.973 236.579 244.973 236.579V235.168L244.423 234.11L244.098 235.521V236.636L243.449 237.976L242.617 237.285V235.662L241.967 237.976V239.204L241.502 240.234L240.768 239.049L240.119 237.454V238.865L239.526 239.895V240.558L238.115 240.234V239.006L237.748 237.595L237.056 239.119V240.347L236.322 242.463L235.447 241.828L235.165 241.32L235.631 240.601L234.643 239.19L234.092 240.911C234.092 240.911 234.431 241.546 234.431 241.603C234.431 241.659 233.979 242.562 233.979 242.562L233.231 243.677L233.415 243.987L232.949 243.508V242.816L232.709 242.252L232.399 242.901L232.498 243.465L232.187 244.284H230.705L229.915 243.508L229.068 241.857L228.278 243.832L228.871 244.961L227.967 246.965L227.05 246.287C226.852 246.146 226.782 244.777 226.782 244.777L225.469 241.518V246.711L224.947 248.037L223.86 247.19L223.409 246.062L222.731 243.62L222.125 246.132C222.125 246.132 222.604 247.543 222.604 247.698C222.604 247.854 222.125 249.716 222.125 249.716H220.036V248.616L219.824 246.598C219.578 246.11 219.3 245.638 218.991 245.187V251.028C218.991 251.028 217.721 252.185 217.721 252.073C217.469 251.588 217.191 251.117 216.889 250.662L216.098 248.743L215.576 251.325V253.145L214.941 254.358C214.941 254.358 213.826 253.103 213.784 252.947C213.741 252.792 214.221 251.847 214.094 251.692C213.967 251.536 212.965 249.265 212.965 249.265L212.09 252.087L212.965 253.314L212.175 255.106L210.905 256.39C210.905 256.39 209.028 255.135 209.028 254.979C209.028 254.824 209.423 253.879 209.296 253.568C209.169 253.258 208.604 251.212 208.604 251.212L208.04 254.542C208.24 254.782 208.363 255.077 208.393 255.389C208.393 255.741 208.04 257.928 208.04 257.928C208.04 257.928 206.558 257.336 206.558 257.138C206.558 256.941 206.431 255.219 206.431 255.092C206.431 254.965 205.866 253.526 205.866 253.526L205.302 255.346V256.574L204.695 258.14L204.78 259.706L203.651 261.527L202.126 259.989V257.449L199.995 253.639C199.755 254.78 199.581 255.935 199.473 257.096C199.473 257.195 200.263 258.888 200.263 258.987C200.263 259.086 199.515 261.188 199.515 261.188L199.643 262.416L198.076 263.488L195.917 261.978L196.368 259.579L195.38 255.572L194.336 260.327L194.858 262.543C194.565 263.562 194.366 264.605 194.265 265.661C194.365 266.826 194.298 268 194.068 269.146L192.36 272.124L191.443 270.332L191.767 268.497L190.455 265.238V263.163L189.467 266.084V267.834L189.001 271.136V272.18L187.491 271.474L187.364 269.019L185.953 266.381V264.97L184.909 269.88C184.975 270.556 184.975 271.236 184.909 271.912C184.782 272.194 184.316 273.746 184.316 273.746L183.469 272.801L182.679 269.979L181.564 268.286V270.459L181.959 272.956L181.564 274.706L179.856 275.369L178.544 273.958L178.868 271.926L177.697 269.894L176.85 274.127L175.806 276.625L172.277 277.895C172.277 277.895 170.57 274.833 170.57 274.692C170.57 274.551 170.259 271.108 170.259 271.108L168.848 269.88V273.281L169.638 274.833L168.848 277.048L169.497 278.276L167.691 280.745C167.691 280.745 164.529 278.516 164.727 278.276C164.94 277.858 165.105 277.418 165.221 276.963C165.221 276.963 163.81 271.63 163.683 271.856L162.271 276.568C162.343 276.819 162.453 277.056 162.596 277.274C162.822 277.598 161.283 279.588 161.283 279.588L161.933 280.576L161.283 282.467C160.619 281.561 160.006 280.619 159.449 279.644C159.77 278.928 160.034 278.187 160.239 277.429L158.997 274.508L157.826 277.711L157.049 279.122V281.338L155.003 282.523L152.449 278.939V275.962L151.926 274.311C151.926 274.311 151.136 276.004 151.08 276.244C151.123 276.622 151.233 276.99 151.404 277.33L149.838 282.283L148.271 280.251C148.416 279.745 148.506 279.225 148.539 278.699C148.539 278.417 147.424 275.538 147.424 275.538L146.013 278.981L146.662 279.87L145.35 282.96L141.229 284.118L139.465 280.929V279.743L138.815 277.994L137.503 280.632C137.503 280.632 138.096 281.056 138.025 281.197C137.955 281.338 137.037 284.019 137.037 284.019L134.68 283.454V281.14C134.68 281.14 133.834 279.447 133.692 279.729L131.801 283.962V284.95L128.979 285.275C128.63 284.355 128.347 283.412 128.132 282.452C128.132 282.17 127.088 281.041 127.088 280.9C127.088 280.759 127.934 278.826 127.934 278.826L127.088 275.101L125.916 278.784V285.006C125.916 285.006 123.757 282.749 123.757 282.608C123.757 282.467 123.362 280.152 123.362 280.152L122.247 283.454L120.483 286.375L119.565 284.202L120.017 283.158C119.806 282.461 119.542 281.782 119.227 281.126L117.66 284.386L116.743 287.024H114.315L113.878 285.938L114.259 283.44L113.017 281.225L112.1 283.398V284.484L111.648 285.529V287.419L109.291 288.929C109.514 288.515 109.667 288.067 109.743 287.603C109.743 287.321 108.896 285.627 108.896 285.486C108.896 285.345 108.444 282.862 108.444 282.862L107.527 285.768V287.603L106.483 289.254L105.833 288.068V286.037L103.999 282.848L103.406 286.545L103.604 287.532L102.432 289.606L100.4 291.441L98.6922 290.354L99.2849 289.691C98.7059 288.171 98.0367 286.687 97.2809 285.246C97.1539 285.43 96.2365 288.506 96.166 288.83C96.2516 289.581 96.4027 290.322 96.6176 291.046L95.7708 292.316L91.5369 293.924V291.667L90.1256 287.052L87.8958 289.875L88.9401 292.993C88.9401 292.993 86.3292 297.805 86.3292 297.522C86.3292 297.24 83.8453 290.735 83.8453 290.735V287.151L82.2364 283.835L80.5288 288.83L81.8413 290.157L80.5288 294.122V296.295L78.5671 299.357L79.4844 300.965L77.2545 305.777L75.5469 302.532C75.8534 301.776 76.1172 301.003 76.3372 300.218C76.3372 299.935 74.3755 297.579 74.7707 297.297C75.1658 297.014 75.942 296.351 75.561 295.97C75.1799 295.589 72.7384 288.337 72.7384 288.337L70.7767 294.178L72.0186 295.589L70.7767 298.665L69.3654 300.641L67.7424 296.887L66.9238 293.84L65.5125 296.958V299.695H63.2827L61.575 297.48L62.0266 296.069C62.0266 295.886 61.1798 293.896 61.0387 294.517C60.8976 295.138 60.1214 297.776 60.1214 297.776L60.5165 298.623L60.1214 300.838L58.0326 303.378C57.7568 302.839 57.5392 302.271 57.3834 301.685C57.3834 301.502 58.0326 300.599 58.0326 300.599C58.0326 300.599 57.1153 296.365 57.0447 296.69L56.1979 300.161L56.4661 301.248C56.4661 301.248 55.5487 302.8 55.4782 302.941C54.7117 303.262 53.9243 303.531 53.1213 303.745L52.204 301.107L51.7523 298.708L51.1596 300.119V301.77L50.4398 303.886L49.5225 305.537L49.0709 304.93L49.3955 303.703L47.7301 300.062L44.7241 306.144L45.6414 306.666L44.7241 308.077L43.3128 306.849C43.3979 306.312 43.5302 305.783 43.7079 305.269C43.8208 305.269 43.3128 301.657 43.3128 301.657L42.0849 305.495L42.4801 306.906L41.6898 308.656L39.841 309.037L39.9962 307.851L39.2623 305.114L38.4438 307.329V309.587L35.6212 311.28L35.9458 310.01L36.468 308.783L35.6212 303.731L33.7583 310.645V312.056L32.1212 309.375L31.599 306.779L30.1877 312.056L28.9457 310.363L28.2965 307.541L27.9014 310.603L26.5606 314.173L24.0062 312.846C23.9554 311.595 23.8044 310.349 23.5546 309.121C23.0577 310.464 22.6429 311.835 22.3126 313.227L20.4779 316.854H301.764L291.532 217.883Z" fill="#083753"/>
<path d="M242.221 82.3799C241.982 81.3357 243.012 80.4608 243.393 79.459C243.943 78.0479 243.167 76.4535 242.899 74.9295C242.597 72.5798 243.225 70.2052 244.649 68.3117C246.067 66.4443 247.723 64.7699 249.574 63.3307C247.952 64.1962 246.239 64.8778 244.465 65.3626C243.817 63.3583 243.817 61.2006 244.465 59.1963C244.875 58.265 245.552 57.489 246.018 56.6C247.74 53.3123 246.596 48.5853 249.49 46.257L245.086 48.0349C246.027 43.6325 247.128 39.2582 248.389 34.9122L246.103 35.5754C246.455 28.5201 249.193 29.3668 250.703 17.2318C253.639 27.73 256.151 30.4674 257.605 35.2367C256.394 34.9998 255.218 34.611 254.105 34.0797C254.018 38.305 254.958 42.4883 256.842 46.2711C257.943 48.4583 259.383 50.6877 259.199 53.1288L256.377 53.1994L259.199 59.4221C260.371 61.962 261.528 65.0663 260.046 67.4228C259.839 67.6765 259.711 67.9857 259.679 68.3117C259.679 68.7915 260.187 69.1019 260.582 69.37C263.73 71.4583 264.478 75.6774 264.957 79.4308L242.221 82.3799Z" fill="#073255"/>
<path d="M254.189 80.87C253.862 79.3969 253.862 77.8701 254.189 76.397C254.974 72.6436 256.176 68.9898 257.774 65.5037C258.649 63.4248 259.543 61.3505 260.455 59.281C260.924 58.4101 261.194 57.4464 261.246 56.4589C259.337 57.5613 257.17 58.1359 254.965 58.1239C255.064 55.1889 258.395 53.2558 258.847 50.349C259.016 49.3049 261.147 41.8828 263.32 40.2177C261.577 40.9391 259.727 41.3681 257.845 41.4877C260.42 36.1546 262.098 30.4338 262.812 24.5551C261.968 25.1069 260.996 25.4324 259.99 25.5005C259.185 23.0876 261.119 20.7453 262.22 18.4452C264.379 13.9299 263.334 4.58876 265.649 0.101624C267.78 4.02434 268.33 10.0636 269.093 14.4802C269.595 16.1093 270.217 17.6987 270.955 19.2354C271.76 21.1545 273.552 22.7348 273.623 24.8796C272.299 23.8152 270.635 23.264 268.937 23.3275C269.652 23.981 270.253 24.7487 270.716 25.5993C271.204 26.565 271.583 27.5826 271.845 28.633C272.988 32.7533 273.58 37.0993 276.078 40.6693C277.843 43.195 276.248 45.1705 277.193 46.0736C276.436 45.4032 275.521 44.9362 274.533 44.7166C273.546 44.4969 272.519 44.5317 271.548 44.8177C275.226 49.9979 277.315 56.1365 277.56 62.4841C276.031 62.1188 274.462 61.9434 272.889 61.962C276.887 66.8708 279.237 72.9136 279.607 79.2332C273.708 79.0216 267.371 80.1504 261.472 80.1363C258.776 80.1504 256.603 79.5578 254.189 80.87Z" fill="#073255"/>
<path d="M240.613 87.5725C240.817 86.6429 240.817 85.68 240.613 84.7504C240.116 82.3635 239.354 80.0396 238.34 77.8221C237.785 76.4958 237.216 75.1788 236.633 73.8712C236.333 73.3093 236.164 72.6871 236.139 72.051C237.353 72.7516 238.731 73.1168 240.133 73.1092C240.133 71.2467 237.945 70.0191 237.663 68.1706C237.564 67.5074 236.252 62.8227 234.84 61.7221C235.95 62.1799 237.128 62.4517 238.326 62.5264C236.684 59.1223 235.616 55.4702 235.165 51.7178C235.705 52.0726 236.327 52.2816 236.971 52.3245C237.494 50.7865 236.252 49.2908 235.56 47.8374C234.149 45.0153 234.854 39.0184 233.373 36.1963C231.961 38.6938 231.665 42.5319 231.185 45.3398C230.866 46.3791 230.47 47.3932 230 48.3736C229.491 49.6012 228.348 50.603 228.306 51.9294C229.149 51.255 230.205 50.9046 231.284 50.9417C230.833 51.3473 230.452 51.824 230.155 52.3527C229.843 52.9681 229.602 53.6166 229.435 54.2859C228.715 56.9104 228.334 59.7184 226.768 61.9338C225.639 63.5424 226.655 64.7558 226.062 65.3767C226.543 64.9503 227.124 64.6528 227.751 64.5121C228.378 64.3715 229.03 64.3922 229.647 64.5724C227.298 67.882 225.969 71.8057 225.822 75.8608C226.798 75.6304 227.798 75.5214 228.8 75.5363C226.226 78.6646 224.71 82.5273 224.467 86.5706C228.221 86.4295 232.244 87.1492 236.012 87.1492C237.691 87.1209 239.117 86.74 240.613 87.5725Z" fill="#073255"/>
<path d="M247.217 88.7578C247.378 88.0376 247.378 87.2909 247.217 86.5707C246.835 84.7377 246.248 82.9533 245.467 81.251C245.044 80.2351 244.606 79.2238 244.155 78.2173C243.923 77.7816 243.793 77.2993 243.774 76.8062C244.704 77.3461 245.761 77.6286 246.836 77.6246C246.836 76.2136 245.171 75.2541 244.945 73.8289C244.861 73.3209 243.816 69.7227 242.758 68.8902C243.607 69.2422 244.508 69.452 245.425 69.5111C244.164 66.8983 243.343 64.0947 242.998 61.2141C243.418 61.4926 243.905 61.6534 244.409 61.6797C244.804 60.5086 243.858 59.3656 243.322 58.2368C242.264 56.0355 242.786 51.4778 241.643 49.3189C240.738 51.5749 240.172 53.9525 239.963 56.3742C239.721 57.1716 239.419 57.9499 239.06 58.7024C238.665 59.6337 237.79 60.4098 237.762 61.4258C238.408 60.9059 239.219 60.6354 240.048 60.6638C239.701 60.9847 239.41 61.3615 239.187 61.7785C238.954 62.2278 238.769 62.7008 238.637 63.1896C238.292 65.2479 237.6 67.2327 236.59 69.0595C235.729 70.2871 236.506 71.2608 236.054 71.6982C236.424 71.3721 236.87 71.1453 237.352 71.0391C237.833 70.933 238.334 70.951 238.806 71.0914C237.011 73.6192 235.991 76.6151 235.871 79.713C236.615 79.5355 237.378 79.4502 238.143 79.459C236.17 81.8599 235.009 84.8237 234.826 87.9253C237.649 87.8124 240.796 88.3627 243.675 88.3627C244.87 88.1681 246.095 88.3047 247.217 88.7578Z" fill="#073255"/>
<path d="M273.171 77.4412C241.779 78.9137 210.641 83.8013 180.308 92.0173L175.015 105.888C168.524 108.654 162.2 111.797 156.076 115.3C149.259 119.533 149.485 120.704 149.485 120.704V127.519C143.934 129.429 138.931 132.659 134.906 136.931C128.315 143.986 129.727 143.746 129.727 143.746L140.071 166.323L175.862 173.139C176.628 175.389 177.764 177.497 179.221 179.375C181.338 181.845 184.513 185.02 184.513 185.02L197.568 187.136L211.328 215.71L204.723 249.815L191.316 276.625L186.842 316.84H273.157L273.171 77.4412Z" fill="#073255"/>
<path d="M129.741 143.761L140.086 166.337L175.876 173.153L184.386 166.577V159.988L195.451 156.234L198.034 151.761L215.435 145.651V141.884L162.751 145.411L157.812 143.055L129.741 143.761Z" fill="#0E4266"/>
<path d="M149.499 127.533L170.626 125.897L174.281 121.311L189.1 118.714L190.032 116.372L149.499 120.718V127.533Z" fill="#0E4266"/>
<path d="M175.015 105.902L185.092 103.32L187.802 99.637L194.618 97.9014L195.917 94.7266L180.308 92.0315L175.015 105.902Z" fill="#0E4266"/>
<path d="M197.582 187.15L211.681 188.688L214.348 194.093H218.187L219.203 201.388L211.342 215.724L197.582 187.15Z" fill="#0E4266"/>
<path d="M191.33 276.639L198.838 274.762L205.768 266.522L214.348 263.234L224.383 249.589H212.612L206.417 241.109L204.737 249.829L191.33 276.639Z" fill="#0E4266"/>
<path d="M4.16328 319.732C4.37497 318.773 3.44351 317.983 3.09069 317.065C2.58262 315.753 3.30238 314.328 3.5423 312.931C3.81936 310.787 3.24703 308.62 1.94753 306.892C0.655279 305.189 -0.853398 303.661 -2.5404 302.348C-1.06197 303.14 0.500093 303.765 2.11689 304.211C2.71221 302.377 2.71221 300.401 2.11689 298.567C1.74995 297.72 1.12898 297.014 0.705591 296.196C-0.860952 293.191 0.183411 288.887 -2.45572 286.756L1.55237 288.379C0.611506 284.362 -0.395226 280.373 -1.46781 276.413L0.620913 277.02C0.296314 270.543 -2.20169 271.376 -3.61299 260.243C-6.29446 269.824 -8.59488 272.307 -9.90739 276.667C-8.80395 276.45 -7.73232 276.094 -6.71785 275.609C-6.64005 279.463 -7.49716 283.278 -9.21585 286.728C-10.2179 288.732 -11.5304 290.749 -11.3751 292.979H-8.84891L-11.4598 298.623C-12.5324 300.937 -13.5768 303.745 -12.236 305.918C-12.0438 306.151 -11.9259 306.436 -11.8973 306.737C-11.8973 307.174 -12.3631 307.456 -12.73 307.696C-15.5526 309.601 -16.2865 313.453 -16.724 316.868L4.16328 319.732Z" fill="#02284C"/>
<path d="M282.698 318.999C281.445 309.499 278.979 300.2 275.359 291.328L280.637 293.402C278.069 287.589 275.279 281.879 272.268 276.272L275.669 277.5C275.458 274.409 273.383 271.757 272.635 268.737C272.113 266.606 272.254 264.363 271.831 262.218C271.407 260.073 270.137 257.844 268.02 257.293C268.345 256.874 268.818 256.593 269.342 256.509C269.866 256.425 270.403 256.544 270.843 256.842C272.353 253.54 269.206 250.097 268.26 246.584C267.399 243.338 268.415 239.528 266.566 236.706C264.449 239.035 265.635 242.252 264.831 245.3C264.415 246.554 263.876 247.764 263.222 248.912C261.827 251.752 261.011 254.841 260.822 257.999L262.968 257.533C261.556 259.636 261.472 262.317 261.048 264.814C260.4 268.566 258.898 272.12 256.659 275.2C258.329 275.691 260.085 275.826 261.81 275.595C259.129 277.5 258.988 281.239 258.607 284.583C258.566 285.801 258.247 286.993 257.675 288.068C256.151 290.552 252.242 291.469 251.917 294.362C254.303 294.988 256.805 295.036 259.214 294.503C257.658 299.317 255.5 303.916 252.792 308.19C251.13 310.914 249.113 313.406 246.794 315.598L253.131 315.866C252.81 317.746 253.203 319.678 254.232 321.284L282.698 318.999Z" fill="#02284C"/>
<path d="M183.991 338.429C183.314 333.299 181.981 328.277 180.025 323.486L182.848 324.601C181.465 321.459 179.955 318.373 178.318 315.344L180.152 316.007C180.04 314.328 178.91 312.903 178.515 311.28C178.233 310.137 178.304 308.924 178.078 307.753C178.011 307.162 177.784 306.601 177.421 306.131C177.058 305.661 176.572 305.299 176.017 305.086C176.193 304.864 176.446 304.716 176.726 304.671C177.005 304.627 177.291 304.689 177.527 304.846C178.346 303.054 176.638 301.205 176.116 299.3C175.594 297.395 175.806 295.928 175.199 293.995C174.677 295.872 174.408 299.526 173.971 301.163C173.787 301.854 172.193 303.802 172.094 305.495L173.251 305.241C172.633 306.466 172.278 307.807 172.207 309.178C171.862 311.216 171.05 313.148 169.836 314.822C170.751 315.093 171.713 315.165 172.658 315.034C171.247 316.064 171.092 318.124 170.923 319.888C170.902 320.543 170.734 321.184 170.429 321.764C169.61 323.175 167.493 323.599 167.324 325.165C168.612 325.498 169.961 325.522 171.261 325.235C170.42 327.836 169.254 330.321 167.789 332.629C166.89 334.103 165.799 335.451 164.543 336.637L167.959 336.778C167.783 337.796 167.994 338.843 168.552 339.713L183.991 338.429Z" fill="#02284C"/>
<path d="M237.127 320.523C237.346 319.067 237.896 317.682 238.736 316.473C239.525 315.596 240.138 314.576 240.542 313.467C240.651 312.207 240.473 310.938 240.02 309.756C239.801 309.161 239.743 308.519 239.852 307.895C239.961 307.27 240.233 306.686 240.641 306.2C239.499 306.804 238.164 306.931 236.929 306.553C237.098 305.495 238.086 304.775 238.721 303.915C240.133 301.995 239.893 299.343 240.316 296.986C240.932 294.479 241.968 292.093 243.379 289.931C242.092 290.696 240.64 291.141 239.145 291.229C240.88 288.225 242.15 284.976 242.913 281.592C242.119 282.05 241.18 282.186 240.288 281.973C242.744 279.151 242.998 275.355 243.322 271.587C243.746 266.677 244.734 263.121 245.256 258.366C245.425 261.555 246.342 266.493 246.568 269.287C246.794 272.081 249.292 275.821 249.828 277.232C249.601 276.92 249.303 276.667 248.96 276.49C248.617 276.314 248.238 276.22 247.853 276.216C248.847 280.138 250.048 284.005 251.451 287.8L249.461 287.97C251.32 290.727 252.42 293.924 252.651 297.24L250.816 297.395C251.423 298.806 250.576 300.528 251.211 301.925C251.5 302.43 251.84 302.903 252.228 303.336C254.232 306.031 253.639 310.49 256.461 312.197C255.238 312.233 254.019 312.046 252.863 311.647C252.355 311.901 252.524 312.677 252.863 313.171C254.175 315.372 256.292 317.164 256.913 319.662C256.96 319.771 256.984 319.889 256.984 320.008C256.984 320.126 256.96 320.244 256.913 320.353C256.786 320.551 256.405 320.565 256.334 320.353L257.153 321.764L237.127 320.523Z" fill="#02284C"/>
<path d="M192.05 329.511C192.193 328.498 192.57 327.532 193.15 326.689C193.693 326.088 194.114 325.389 194.392 324.629C194.47 323.762 194.349 322.888 194.04 322.075C193.889 321.667 193.849 321.226 193.923 320.797C193.997 320.369 194.184 319.967 194.463 319.634C193.677 320.048 192.758 320.135 191.909 319.874C192.036 319.14 192.699 318.66 193.136 318.067C194.124 316.741 193.941 314.921 194.237 313.298C194.655 311.558 195.366 309.902 196.34 308.402C195.453 308.933 194.451 309.243 193.419 309.305C194.613 307.242 195.489 305.011 196.015 302.687C195.47 303.004 194.823 303.1 194.209 302.955C195.903 300.98 196.072 298.411 196.298 295.815C196.58 292.443 197.243 289.959 197.624 286.728C197.737 288.915 198.372 292.372 198.528 294.235C198.683 296.097 200.391 298.722 200.772 299.695C200.61 299.473 200.398 299.293 200.152 299.17C199.907 299.047 199.635 298.985 199.36 298.99C200.043 301.684 200.867 304.341 201.83 306.948L200.419 307.061C201.73 308.958 202.514 311.168 202.691 313.467L201.435 313.566C201.844 314.54 201.266 315.725 201.703 316.685C201.898 317.033 202.13 317.359 202.395 317.658C203.806 319.507 203.354 322.569 205.33 323.754C204.491 323.777 203.654 323.648 202.86 323.373C202.507 323.542 202.634 324.078 202.86 324.417C203.764 325.927 205.217 327.169 205.683 328.876C205.716 328.952 205.732 329.033 205.732 329.116C205.732 329.198 205.716 329.28 205.683 329.356C205.598 329.497 205.33 329.511 205.288 329.356L205.852 330.329L192.05 329.511Z" fill="#02284C"/>
<path d="M225.554 259.847C225.584 260.974 225.412 262.097 225.046 263.163C224.75 263.869 224.298 264.49 223.959 265.167C222.953 267.03 222.369 269.092 222.252 271.206C223.171 271.197 224.07 270.933 224.848 270.444C223.31 282.848 220.332 281.154 218.991 285.966C221.659 285.275 222.35 283.948 224.439 283.243C223.338 284.719 222.712 286.496 222.647 288.337C222.704 289.378 222.661 290.422 222.52 291.455C222.223 292.753 221.348 293.84 220.925 295.095C220.403 296.648 220.544 298.496 219.514 299.738C218.624 300.754 216.903 301.502 217.213 302.814C218.798 302.909 220.377 302.557 221.772 301.798C218.243 308.19 214.616 314.921 214.461 322.23L241.022 320.819C240.598 317.7 238.199 315.175 237.014 312.353C235.475 308.726 235.715 304.394 233.514 301.064C234.782 301.958 236.31 302.41 237.861 302.348C236.238 301.144 235.093 299.405 234.629 297.438C233.037 292.862 231.81 288.167 230.959 283.398C231.632 284.073 232.448 284.588 233.347 284.906C234.246 285.223 235.205 285.335 236.153 285.232C233.569 282.899 231.596 279.968 230.409 276.695L229.59 269.316C230.743 270.088 232.139 270.41 233.514 270.219C231.411 269.09 230.691 266.451 230.268 264.109C229.04 257.914 228.292 251.72 227.064 245.539C226.655 248.22 226.485 251.057 226.189 253.117C225.832 255.344 225.62 257.593 225.554 259.847Z" fill="#02284C"/>
<path d="M186.038 297.48C186.06 298.191 185.884 298.895 185.53 299.512C185.233 299.949 184.782 300.33 184.443 300.74C183.492 301.763 182.894 303.063 182.735 304.451C183.622 304.452 184.501 304.294 185.332 303.985C183.794 311.619 180.816 310.575 179.475 313.538C182.142 313.115 182.82 312.296 184.923 311.859C184.423 312.228 184.005 312.697 183.696 313.236C183.388 313.776 183.195 314.373 183.13 314.991C183.187 315.634 183.144 316.281 183.003 316.91C182.707 317.7 181.832 318.321 181.409 319.154C180.985 319.986 181.027 321.256 179.997 321.976C178.967 322.696 177.386 323.062 177.697 323.867C179.241 323.931 180.785 323.721 182.255 323.246C178.727 327.183 175.1 331.317 174.945 335.818L201.505 334.986C201.082 333.067 198.683 331.557 197.497 329.765C195.959 327.535 196.199 324.869 193.997 322.851C195.373 323.421 196.855 323.691 198.344 323.641C196.918 323.088 195.761 322.006 195.112 320.621C193.558 317.895 192.327 314.997 191.443 311.986C193.021 312.876 194.831 313.269 196.636 313.115C194.278 311.917 192.291 310.097 190.892 307.851L190.074 303.308C191.321 303.793 192.665 303.981 193.997 303.858C193.177 303.563 192.447 303.061 191.879 302.401C191.31 301.741 190.921 300.945 190.751 300.091C189.523 296.281 188.776 292.471 187.548 288.661C187.138 290.312 186.969 292.062 186.673 293.318C186.317 294.679 186.104 296.074 186.038 297.48Z" fill="#02284C"/>
<path d="M42.3672 298.016C42.385 298.682 42.2846 299.347 42.0708 299.978C41.9014 300.401 41.6333 300.768 41.4216 301.163C40.8231 302.268 40.4762 303.492 40.4055 304.747C40.9501 304.741 41.4825 304.585 41.9438 304.296C41.0264 311.661 39.2623 310.645 38.472 313.51C40.0526 313.1 40.4619 312.31 41.7039 311.901C41.0708 312.768 40.712 313.805 40.6736 314.878C40.7088 315.495 40.6852 316.114 40.603 316.727C40.4337 317.489 39.9115 318.138 39.6575 318.886C39.4034 319.634 39.4317 320.904 38.7825 321.708C38.1333 322.512 37.23 322.752 37.3712 323.542C38.3134 323.598 39.2523 323.388 40.0809 322.935C37.9921 326.731 35.847 330.724 35.7482 335.056L51.4983 334.252C51.2443 332.404 49.8471 330.936 49.1132 329.229C48.21 327.07 48.3511 324.516 47.0386 322.569C47.7936 323.097 48.7004 323.364 49.6213 323.331C48.6611 322.603 47.9908 321.558 47.7301 320.381C46.7869 317.668 46.0602 314.884 45.5567 312.056C45.9553 312.456 46.4388 312.762 46.9713 312.95C47.5039 313.138 48.0719 313.204 48.6334 313.143C47.1047 311.756 45.9373 310.017 45.2321 308.077L44.7523 303.703C45.437 304.16 46.2653 304.35 47.0809 304.239C46.5158 303.81 46.0503 303.264 45.7165 302.638C45.3827 302.012 45.1886 301.321 45.1474 300.613C44.4136 296.944 43.9761 293.261 43.2422 289.592C43.0023 291.187 42.9035 292.866 42.72 294.08C42.5189 295.383 42.401 296.698 42.3672 298.016Z" fill="#02284C"/>
<path d="M-2.68152 339.007C-1.4339 329.508 1.02775 320.209 4.64313 311.337L-0.635136 313.467C1.93343 307.654 4.7231 301.944 7.73387 296.337L4.33264 297.565C4.54433 294.475 6.61895 291.822 7.36693 288.802C7.88912 286.671 7.74798 284.428 8.17138 282.283C8.59476 280.138 9.86493 277.909 11.9819 277.359C11.6569 276.939 11.1843 276.658 10.6599 276.574C10.1356 276.49 9.59903 276.609 9.15928 276.907C7.64919 273.605 10.7964 270.162 11.742 266.649C12.6029 263.403 11.5867 259.593 13.4355 256.771C15.5525 259.1 14.367 262.317 15.1714 265.365C15.5868 266.619 16.1257 267.829 16.7803 268.977C18.175 271.817 18.9906 274.906 19.1795 278.064L17.0343 277.598C18.4456 279.701 18.5303 282.382 18.9537 284.879C19.602 288.632 21.1037 292.185 23.3428 295.265C21.6725 295.756 19.9174 295.891 18.1916 295.66C20.8731 297.565 21.0142 301.304 21.3953 304.648C21.4363 305.866 21.7549 307.058 22.3267 308.133C23.8509 310.617 27.7602 311.534 28.0848 314.427C25.6984 315.053 23.1972 315.101 20.7884 314.568C22.3439 319.382 24.5015 323.981 27.2098 328.255C28.8716 330.98 30.8887 333.471 33.2078 335.663L26.8711 335.931C27.1915 337.811 26.7989 339.743 25.7703 341.35L-2.68152 339.007Z" fill="#02284C"/>
<path d="M40.0668 335.72C39.8477 334.264 39.2973 332.879 38.4579 331.67C37.6683 330.793 37.055 329.773 36.6514 328.664C36.5421 327.404 36.7207 326.135 37.1736 324.953C37.3913 324.361 37.4485 323.721 37.3395 323.099C37.2304 322.477 36.959 321.895 36.5526 321.412C37.6964 322.011 39.031 322.132 40.2643 321.75C40.095 320.692 39.1071 319.972 38.472 319.112C37.0607 317.192 37.3006 314.54 36.8772 312.183C36.2615 309.676 35.226 307.29 33.8147 305.128C35.1018 305.893 36.5537 306.338 38.0486 306.426C36.3137 303.422 35.0433 300.173 34.2804 296.789C35.0745 297.247 36.0139 297.383 36.9054 297.17C34.4498 294.348 34.1957 290.552 33.8711 286.784C33.4478 281.874 32.4598 278.318 31.9377 273.563C31.7683 276.752 30.851 281.69 30.6251 284.484C30.3993 287.278 27.9719 290.89 27.3933 292.302C27.6211 291.99 27.9183 291.737 28.2612 291.56C28.6042 291.384 28.9835 291.29 29.3691 291.286C28.3746 295.208 27.1733 299.075 25.7703 302.87L27.7602 303.04C25.9021 305.797 24.8021 308.994 24.5707 312.31L26.4054 312.465C25.7985 313.877 26.6453 315.598 26.0102 316.995C25.722 317.5 25.3814 317.973 24.994 318.406C23.0041 321.101 23.5827 325.56 20.7601 327.267C21.9831 327.303 23.2024 327.116 24.359 326.717C24.867 326.971 24.6977 327.747 24.359 328.241C23.0464 330.442 20.9295 332.234 20.3085 334.732C20.2615 334.841 20.2373 334.959 20.2373 335.078C20.2373 335.196 20.2615 335.314 20.3085 335.423C20.4355 335.621 20.8166 335.635 20.8872 335.423L20.0686 336.834L40.0668 335.72Z" fill="#02284C"/>
<path d="M210.03 281.352C210.007 282.171 210.132 282.989 210.397 283.765C210.608 284.273 210.933 284.724 211.187 285.176C211.92 286.534 212.344 288.037 212.429 289.578C211.758 289.568 211.104 289.373 210.538 289.014C211.653 298.045 213.826 296.817 214.772 300.302C212.824 299.808 212.33 298.891 210.806 298.327C211.611 299.401 212.069 300.696 212.118 302.038C212.074 302.796 212.103 303.557 212.203 304.31C212.415 305.255 213.064 306.045 213.374 306.962C213.756 308.091 213.657 309.446 214.447 310.349C215.237 311.252 216.352 311.633 216.127 312.592C214.969 312.664 213.816 312.41 212.796 311.859C215.364 316.515 218.004 321.411 218.116 326.731L198.768 325.743C199.078 323.472 200.8 321.68 201.689 319.577C202.804 316.938 202.634 313.778 204.229 311.407C203.303 312.059 202.186 312.387 201.054 312.338C202.239 311.46 203.074 310.19 203.411 308.754C204.568 305.425 205.46 302.009 206.078 298.538C205.589 299.031 204.995 299.408 204.34 299.64C203.685 299.872 202.986 299.953 202.296 299.879C204.196 298.183 205.65 296.046 206.53 293.656L207.122 288.28C206.29 288.828 205.288 289.059 204.3 288.929C205.838 288.111 206.332 286.192 206.671 284.484C207.574 279.969 208.082 275.468 208.999 270.952C209.296 272.914 209.423 274.974 209.649 276.47C209.88 278.087 210.008 279.718 210.03 281.352Z" fill="#02284C"/>
</svg>
